PathFileType	4	(X/Y/Z)	17_1_52_p1_0-290.trc
DataRate	CameraRate	NumFrames	NumMarkers	Units	OrigDataRate	OrigDataStartFrame	OrigNumFrames
60.0	60.0	5	27	m	60.0	109	291
Frame#	Time	RHip			RKnee			RAnkle			RBigToe			RSmallToe			RHeel			LHip			LKnee			LAnkle			LBigToe			LSmallToe			LHeel			Neck			Head			Nose			RShoulder			RElbow			RWrist			RThumb			RIndex			RPinky			LShoulder			LElbow			LWrist			LThumb			LIndex			LPinky			
		X1	Y1	Z1	X2	Y2	Z2	X3	Y3	Z3	X4	Y4	Z4	X5	Y5	Z5	X6	Y6	Z6	X7	Y7	Z7	X8	Y8	Z8	X9	Y9	Z9	X10	Y10	Z10	X11	Y11	Z11	X12	Y12	Z12	X13	Y13	Z13	X14	Y14	Z14	X15	Y15	Z15	X16	Y16	Z16	X17	Y17	Z17	X18	Y18	Z18	X19	Y19	Z19	X20	Y20	Z20	X21	Y21	Z21	X22	Y22	Z22	X23	Y23	Z23	X24	Y24	Z24	X25	Y25	Z25	X26	Y26	Z26	X27	Y27	Z27	
109	1.8166666666666667	0.3260036242543414	0.649085948375987	0.9428683090214174	0.24188619240864592	0.501258133430276	1.2964073500364277	0.2349806997725862	0.7076966978157649	1.7030554593646308	0.23192304398737454	0.5044855399167464	1.720961555349701	0.2659456571606555	0.5551139016608369	1.733204147557602	0.21180496686574618	0.8127918977673906	1.7765919923814153	0.1564431617813671	0.6659331874212072	0.954194114255023	0.11844299970773627	0.546354833126968	1.2690089706910705	0.05430094535281665	0.6823717954286549	1.7069409174568426	0.0761768736518741	0.465587004769499	1.7038417481329644	0.016413935979515994	0.5449149554997881	1.7313439150068228	0.06580786588192038	0.7802697538008255	1.7782401174173017	0.01617715362252523	0.36124209329468715	0.5494514533504018	-0.12604448596742676	0.24626191531243516	0.3068473391043883	-0.137674929507404	0.24222888654064711	0.4730853037963501	0.11747504760920291	0.2586011897688642	0.5772854225731341	-0.06826463561187235	0.035404066505280676	0.7601104383724581	-0.3065951212480695	-0.0023850552197754813	0.7710430025524974	-0.42050080028718373	-0.02567529635797172	0.7634511006119998	-0.46185362305013494	-0.01808328677380634	0.7656882381100067	-0.44941302696303437	-0.004536058384050175	0.7964158132814155	-0.04953519498519109	0.4756434244186222	0.5631273405718196	-0.1657615423948379	0.5104832709678971	0.6516841017114555	-0.29947286629297304	0.351535363706031	0.7521852307813844	-0.32311080601028114	0.24550310081922289	0.7606458091580978	-0.37725713607169187	0.3231193997009109	0.7730450191180318	-0.3837831059812671	0.36153857023050834	0.7746138778182452
110	1.8333333333333333	0.32498076350265853	0.6476776590629815	0.9422835007699362	0.24183869154379775	0.5011919196514739	1.2963708277803108	0.23444539567976863	0.7086042051045839	1.6989105740653723	0.22946413463048426	0.4916074576850959	1.714960123279639	0.26587002942210963	0.5548492903257934	1.7331609060851447	0.2094944392118247	0.7958600901300292	1.7692661230574311	0.15588751672201334	0.6657908084808112	0.9585985049959916	0.11903191436165271	0.5483680259774668	1.273972538928231	0.05432865176852141	0.6824042269391799	1.7070123857950092	0.07618889035415448	0.4656469623976197	1.70387957802671	0.016465404586177727	0.5450755427559808	1.7314438400680192	0.06584469911957072	0.7802561764572508	1.778295993047384	0.014750327243171785	0.34907516674625644	0.5485993740236494	-0.1294393048135675	0.2434720290926656	0.3131654261802873	-0.13798103243067603	0.24212473022077094	0.4762462804944886	0.1177696498296199	0.2577295063338579	0.5804129468048257	-0.07775196051615584	0.04290206376950596	0.7628937411308532	-0.3151690314275942	0.01833820848649876	0.7924212885189477	-0.4092923393813299	-0.030153417267508885	0.7700029347713256	-0.46504059442650986	-0.006331653953034229	0.7873759753227536	-0.4494400316227319	0.0031052088667788374	0.8047676307265845	-0.0420964905190832	0.4201110111707548	0.5602355897488095	-0.1668028495746964	0.4846740357608005	0.6537056293880551	-0.30484953089847927	0.35502678468493964	0.7411282962420304	-0.3217553055541196	0.2906847568685123	0.7633268016263575	-0.381744729331111	0.30166174384191885	0.7602516267648273	-0.3870473840621717	0.3172034264090564	0.7585147924825539
111	1.85	0.3250526167406554	0.6475564931126523	0.9422143302073485	0.24125743397301674	0.4991388356849325	1.2918731396914982	0.234998689498582	0.7075056048261915	1.7031049800059757	0.22935026988174112	0.49176007126874904	1.7150383054248362	0.26239776020569094	0.55077409027925	1.735538569392561	0.2082744060582014	0.7969689682776655	1.7745796678642718	0.15770644640306086	0.6799425294283091	0.9613776950424797	0.11842566971568609	0.5466189794597162	1.2692792025251456	0.05428932185571929	0.68268897568952	1.7072535461681628	0.07607677212045592	0.4658673269998453	1.7039238587327334	0.016436074481898003	0.5453822860910686	1.7316664094913725	0.06572728508679687	0.7804309043821965	1.778804350852848	0.013560913413815783	0.3374915209412294	0.5475261857477604	-0.1328460596228898	0.2411226970280389	0.31345576872021336	-0.13785381132345276	0.2416057062740358	0.47961296838583717	0.1158875637365463	0.2472423194535156	0.5791519748138916	-0.07682100213531924	0.053275249567334655	0.7652614005105308	-0.3254128969781429	0.024664942942309184	0.79869669801187	-0.4054332589373393	-0.04953276462015598	0.7784888650833444	-0.4652352780533963	-0.006771973573428786	0.7939032375546138	-0.45568810591745584	0.01134046379004346	0.8144164657621434	-0.04263805688011975	0.4063339774921117	0.5516138296550879	-0.1656051035394886	0.49657685981564376	0.6474207577340106	-0.2942003585317912	0.3437678744093158	0.7190652518809982	-0.3126397151133688	0.29318971413084777	0.7515927276891816	-0.3708454863082339	0.30313247385318964	0.7465053738203534	-0.3882083985910868	0.31495236408168165	0.748381942552688
112	1.8666666666666667	0.3251981897487399	0.6471396677497478	0.9423801017121279	0.24186073994113608	0.5009689233728047	1.2967005445238977	0.23443747441229743	0.7085883649548046	1.6988486794366833	0.22942600821806783	0.4920144356337803	1.7149471316399978	0.2619630777514248	0.5519539492801999	1.731931849498568	0.21134220940913015	0.8138976484979923	1.7729686108148277	0.15591459929539783	0.6658283486876834	0.9585404360441323	0.11820088228328195	0.5487346335149879	1.2790518437850436	0.05432274397675618	0.6827162709870462	1.7073241261478922	0.07621754509112523	0.465574305119534	1.7038250253734701	0.0158983571491818	0.5428763636135912	1.7257133993728255	0.06575254507925936	0.7805676824153837	1.7793525217257988	0.012201522345153414	0.32586212256022706	0.5464203486223929	-0.13281293649140616	0.24086737109699455	0.31644070339691455	-0.14128429261862346	0.2390872101192901	0.47958418611432724	0.11305070800477249	0.24548164252637186	0.585751964911175	-0.07669306156399709	0.053928636527277765	0.7754472989591551	-0.32544343133498876	0.013301362277006228	0.8031884716825658	-0.41234440553292584	-0.039261600936853464	0.7887368409343394	-0.46435957912386316	-0.013770514436937338	0.8003980927439637	-0.45308161057662	-0.033188314068501194	0.8062704739090049	-0.0460802452495535	0.4215079143775218	0.5490205983259265	-0.16517378939015395	0.4807896046586622	0.636156076521538	-0.3025909334878472	0.3547221178061495	0.7086421407275746	-0.3203526619307539	0.30203247549186807	0.7553319388601784	-0.38040065307512066	0.3311974413948201	0.7466104189590307	-0.38902677774315886	0.3290981937666123	0.7390543511748048
113	1.8833333333333333	0.325251108529648	0.6462163787787129	0.9426945814887349	0.24141311586437134	0.49890877674744455	1.2920679772979389	0.23440209930828457	0.7085634651100031	1.6988261114694623	0.228610473114086	0.4925209326215697	1.7116124593910573	0.26189517738170814	0.5523380191255884	1.732164725018702	0.2088977401737995	0.7974260204759361	1.7659995458783486	0.1558935276629182	0.6654637397672688	0.9585336515692078	0.118241156261517	0.5488016903396602	1.2789981163095259	0.05431322372707733	0.6826398797630395	1.7072819122204819	0.07613998367408709	0.46562349789919816	1.7037664862870736	0.015854021587092114	0.5426900348333529	1.7254849303480408	0.06567143842035289	0.7801903158225423	1.7788476409780376	0.009866632527529617	0.3348949574868879	0.5475008047559391	-0.13381599754396462	0.23005255862523896	0.31327597285619174	-0.14146067812561405	0.23875057180736325	0.47949953161555536	0.10978981459215517	0.24086457975859257	0.5855929639393673	-0.07668817578168542	0.043349045313932515	0.7770880462834922	-0.317945961708105	0.003422784680795466	0.8046901818886792	-0.403224371538732	-0.03674239391943314	0.7955222029538458	-0.46133069511198604	-0.009870511001240966	0.8022750538402736	-0.45503171077877225	0.002711464213564492	0.8238147205860613	-0.030192929291299436	0.43936305094044775	0.5426604916599328	-0.1655537302591653	0.48429179658761384	0.6314723393845283	-0.310129353342391	0.36795437697703465	0.699300560332211	-0.3242283231712502	0.2975660815160504	0.7446591043891806	-0.37971190629600066	0.3191012081335814	0.7405083760372797	-0.3964459992060368	0.33749890367149593	0.7288749943961882
